<?xml version="1.0" encoding="utf-8"?>
<!-- Generator: Adobe Illustrator 24.1.2, SVG Export Plug-In . SVG Version: 6.00 Build 0)  -->
<svg version="1.1" id="Vrstva_1" xmlns="http://www.w3.org/2000/svg" xmlns:xlink="http://www.w3.org/1999/xlink" x="0px" y="0px"
	 viewBox="0 0 640 261" style="enable-background:new 0 0 640 261;" xml:space="preserve">
<style type="text/css">
	.st0{fill:#169AB6;}
	.st1{enable-background:new    ;}
</style>
<g>
	<path class="st0" d="M136.4,201.7c15.4,2.3,30.8,1.2,46.2,0.3c6.5-0.4,12.9-1.4,19.4-1.3c5.4,0.1,9.2,2,11.5,7.1
		c1.2,2.6,2.7,4.9,4.4,7.3c0.9,1.2,2.3,2.1,3.9,1.2c1.8-1,1.3-2.5,0.7-3.9c-0.8-1.9-1.7-3.8-2-6.2c2,1.6,3.9,3.3,6,4.8
		c1,0.8,2.3,1.6,3.6,0.5c1.5-1.2,0.5-2.5-0.2-3.6c-1.8-2.9-3.8-5.7-5.9-8.7c2.6-0.2,4.2,1.7,6.2,2.1c1.6,0.3,3.3,1.7,4.4-0.2
		c0.9-1.6-0.7-2.7-1.8-3.8c-3.6-3.8-8.3-6-12.9-8.6c1.8-2.6,3.9-4.7,5-7.5c0.6-1.5,1-2.9-0.5-4.1c-1.6-1.3-2.8-0.2-3.9,0.9
		c-2.7,2.5-5.1,5.3-8.1,7.4c-5.7,4.1-12.3,6-19.2,6.4c-12.8,0.8-25.8,1-38.4-1.3c-7.9-1.4-15.4-4.7-22.8-8.1c-1.4-0.6-2.1-1.3-1.5-3
		c0.7-1.9,1.8-0.9,2.8-0.6c22.6,7.4,41.9,1.3,58.9-14.2c2.5-2.2,4.2-0.8,6.3-0.2c5.9,1.6,9.9-0.8,9.5-5.7c-0.3-3.4-2.8-4.2-6-5.3
		c6.8-5.8,10.2-13.2,11.6-21.6c0.5-3.1,2.8-1.8,4.3-1.7c10.9,0,20.2-3.4,27.7-12.6c-7.1-0.7-13.6-1.1-20.2-4
		c5.2-1.9,10.1-3,14.2-7.3c-10-0.1-19.2-1.1-29-4.8c8.1-2.2,14.9-5.2,20.2-12.6c-18.9,3.9-34.3-3.9-49.8-11c-2-0.9-4-1.7-6-2.3
		c-6.6-1.9-13.6-4-20-1.2c-6.4,2.9-10.8,1.7-16.5-1.8c-9.1-5.6-20.8-1.4-28.2,8.8c-3.8,5.2-5.8,11.2-7.4,17.3
		c-0.5,1.9-0.7,3.2-3.2,2.1c-3.6-1.6-6.3,0.1-7.5,3.5c-1.4,3.7,0,7.1,3.5,8.3c4.1,1.5,3.7,3.9,3.6,7.3c-0.7,18.7,2.5,37.2,19.6,51.6
		c-3.7,3.7-4,3.8-8,0.6c-1-0.8-2.1-1.7-3-2.7c-15.6-18.4-26.6-39.4-34.2-62.2c-2.1-6.2-1.4-12.4,1.6-18.4c1.2-2.5,3.7-6.2,0.2-7.9
		c-3.2-1.4-4.7,2.8-6.3,5.2c-0.7,1.1-1.2,2.4-1.9,3.9c-4.8-2.7-9.6-5.3-15-6.1c-1.5-0.2-3.2-0.9-4,0.9c-0.7,1.7,1,2.6,2.1,3.5
		c1.5,1.2,3.2,2.3,5.3,3.9c-3.7-0.6-6.6-1.2-9.6-1.6c-1.2-0.2-2.5,0-3.1,1.2c-0.7,1.5,0.3,2.7,1.5,3.3c2.3,1.3,4.7,2.3,7.2,4.2
		c-2.6,0-5.2,0-7.9,0c-1.4,0-2.8,0.2-3.1,1.9c-0.3,1.8,0.9,2.7,2.4,3.3c2.7,1.1,5.6,0.9,8.4,0.8c5.2-0.2,8.8,2,11.6,6.4
		c3.2,5.1,5.4,10.7,7.8,16.2c7.1,16.6,12.7,33.9,21.3,49.9c1,1.8,1.2,3.7,0.9,5.8c-1,6.9-1.8,13.8-2.7,21.3
		c-17.3-13.1-37.5-21.7-50.5-40.1c-26.3-37.4-17.8-87,20-114.4c16.4-11.9,34.8-17.8,54.7-19.9c9.5-1,18.5-3.7,27.5-6.8
		C180,10.7,214.3,15.8,242.9,44c19.3,19,25.6,42.7,18.5,69.3c-4.4,16.6-5.2,33.2-3.7,50.4c2.5,29.2-10.5,51.6-34.3,67.8
		c-18,12.2-38.3,16.5-59.8,15.3c-3.1-0.2-5-1.5-6.9-4C147,230.5,141.3,216.5,136.4,201.7z"/>
</g>
<g class="st1">
	<path class="st0" d="M333.7,62c0.6-1,1.5-1.8,2.8-2.2c1.3-0.4,3-0.6,5-0.6c2,0,3.6,0.2,4.8,0.5c1.2,0.3,2.1,0.8,2.7,1.2
		c0.6,0.5,1.1,1.2,1.5,2.1c0.3,1.2,0.5,3,0.5,5.4V126c0,1.6-0.1,2.8-0.2,3.6c-0.1,0.8-0.4,1.7-1,2.7c-1,1.9-3.7,2.8-8.1,2.8
		c-4.8,0-7.7-1.3-8.5-3.8c-0.4-1.2-0.6-3-0.6-5.4v-21.1h-27.5V126c0,1.6-0.1,2.8-0.2,3.6c-0.1,0.8-0.4,1.7-1,2.7
		c-1,1.9-3.7,2.8-8.1,2.8c-4.8,0-7.7-1.3-8.5-3.8c-0.4-1.2-0.6-3-0.6-5.4V68.4c0-1.6,0.1-2.8,0.2-3.6c0.1-0.8,0.4-1.7,1-2.7
		c1-1.9,3.7-2.8,8.1-2.8c4.8,0,7.7,1.3,8.6,3.8c0.3,1.2,0.5,3,0.5,5.4v21.2h27.5V68.4c0-1.6,0.1-2.8,0.2-3.6
		C332.8,64,333.1,63.1,333.7,62z"/>
	<path class="st0" d="M383.5,135c-7,0-12.8-2.6-17.4-7.9c-4.6-5.3-6.9-11.7-6.9-19.3V89.6c0-1.7,0.1-2.9,0.2-3.6
		c0.1-0.8,0.4-1.7,0.9-2.7c1-1.9,3.7-2.8,8.1-2.8c4.8,0,7.7,1.3,8.5,3.9c0.4,1.1,0.6,2.9,0.6,5.3v18.1c0,2.8,0.8,5,2.4,6.6
		c1.6,1.6,3.8,2.4,6.5,2.4c2.7,0,4.9-0.8,6.6-2.5c1.7-1.7,2.5-3.8,2.5-6.5V89.5c0-1.6,0.1-2.8,0.2-3.6c0.1-0.8,0.4-1.7,1-2.7
		c0.9-1.8,3.6-2.7,8-2.7c4.4,0,7,0.9,8,2.8c0.5,1,0.8,2,0.9,2.7c0.1,0.8,0.2,2,0.2,3.6v36.7c0,1.5-0.1,2.7-0.2,3.5
		c-0.1,0.8-0.4,1.7-1,2.6c-1,1.8-3.7,2.7-8,2.7c-4.2,0-6.8-0.8-7.8-2.5c-0.7-1.2-1-2.6-1-4.3c-0.3,0.5-0.9,1.2-1.9,2.1
		c-1,0.9-1.9,1.7-2.8,2.3C388.8,134.3,386.2,135,383.5,135z"/>
	<path class="st0" d="M459.2,81.2c1.3,0.4,2.4,1.1,3.3,2.1c0.9,1,1.3,2.6,1.3,4.8c0,2.2-0.7,4.6-2,7.3c-1.3,2.6-3.2,3.9-5.7,3.9
		c-1.2,0-2.4-0.3-3.6-0.8c-1.1-0.6-2.6-0.8-4.5-0.8c-1.9,0-3.6,0.7-5.2,2c-1.6,1.3-2.4,2.9-2.4,4.8v21.8c0,1.6-0.1,2.8-0.2,3.6
		c-0.1,0.8-0.4,1.7-1,2.7c-1,1.8-3.7,2.7-8.1,2.7c-3.3,0-5.7-0.6-7.2-1.8c-1.1-1-1.7-2.5-1.9-4.5c0-0.7,0-1.7,0-3V89.6
		c0-1.6,0.1-2.8,0.2-3.6c0.1-0.8,0.4-1.7,0.9-2.6c1-1.9,3.7-2.8,8.1-2.8c4.1,0,6.7,0.8,7.8,2.4c0.8,1.1,1.1,2.2,1.1,3.4
		c0.3-0.5,0.8-1.1,1.5-1.8c0.7-0.7,2.1-1.6,4.2-2.8c2.1-1.2,4-1.8,5.7-1.8c1.6,0,3,0.1,4.1,0.3C456.7,80.5,457.9,80.8,459.2,81.2z"
		/>
	<path class="st0" d="M501.8,86.4c0.4-3.9,3.1-5.8,8.2-5.8c2.7,0,4.7,0.2,6,0.6c1.3,0.4,2.2,1.1,2.7,2.2s0.8,2,0.9,2.7
		c0.1,0.8,0.2,2,0.2,3.6V126c0,1.6-0.1,2.8-0.2,3.6c-0.1,0.8-0.4,1.7-0.9,2.7c-1,1.8-3.3,2.7-7.1,2.7c-3.8,0-6.3-0.5-7.6-1.4
		c-1.3-0.9-2-2.3-2.2-4.1c-2.6,3.7-6.8,5.5-12.8,5.5c-6,0-11.5-2.7-16.6-8.2c-5.1-5.5-7.7-11.8-7.7-19c0-7.2,2.6-13.6,7.7-19
		c5.2-5.4,10.8-8.1,17-8.1c2.4,0,4.5,0.4,6.4,1.2c1.9,0.8,3.3,1.6,4,2.3C500.7,85,501.3,85.7,501.8,86.4z M489.7,75.5l-3.1,0.7
		c-2.1,0-3.8-2-5.1-6.1c-0.6-1.7-0.8-3.1-0.8-4.3c0-1.2,0.2-2.1,0.6-2.7c0.7-0.9,2-1.6,3.8-2.2l17.1-5.3c1.8-0.5,2.8-0.7,3.1-0.7
		c2.1,0,3.7,2,5,6.1c0.6,1.7,0.8,3.1,0.8,4.2c0,1.1-0.2,2-0.6,2.6c-0.7,0.9-2,1.6-3.8,2.2L489.7,75.5z M482.9,108
		c0,2.3,0.9,4.3,2.7,6.2c1.8,1.8,4,2.7,6.5,2.7c2.6,0,4.7-0.9,6.4-2.8c1.7-1.9,2.5-3.9,2.5-6.2c0-2.2-0.8-4.3-2.4-6.3
		c-1.6-1.9-3.8-2.9-6.5-2.9c-2.7,0-4.9,1-6.6,2.9C483.8,103.6,482.9,105.7,482.9,108z"/>
</g>
<g class="st1">
	<path class="st0" d="M321.2,186.1l-6.7-0.4v14.2c0,1.9,0.3,3.2,0.9,4c0.6,0.8,1.7,1.2,3.3,1.2c1.6,0,2.9,0.1,3.7,0.2
		c0.9,0.1,1.8,0.4,2.7,1c1.6,0.9,2.4,3.2,2.4,6.9c0,4.3-1,7-2.9,8c-1,0.5-1.9,0.8-2.7,0.9c-0.8,0.1-1.9,0.2-3.5,0.2
		c-7.2,0-12.6-1.6-16.3-4.9c-3.7-3.2-5.6-8.7-5.6-16.4v-15.3c-1.3,0.2-2.7,0.3-4.2,0.3c-1.5,0-2.8-0.6-3.8-1.8c-1-1.2-1.5-3.2-1.5-6
		c0-2.8,0.2-4.9,0.5-6.1c0.3-1.3,0.8-2.2,1.4-2.7c1.1-0.9,2.5-1.3,4.1-1.3l3.4,0.4v-10.6c0-1.6,0.1-2.8,0.2-3.5
		c0.1-0.8,0.4-1.6,1-2.5c0.9-1.7,3.5-2.6,8-2.6c4.7,0,7.5,1.3,8.4,3.8c0.3,1.1,0.5,2.9,0.5,5.3v10.1c3-0.3,5.3-0.4,6.9-0.4
		s2.7,0.1,3.5,0.2c0.8,0.1,1.7,0.4,2.7,1c1.8,0.9,2.7,3.5,2.7,8c0,4.3-0.9,7-2.8,8c-1,0.5-1.9,0.8-2.7,0.9
		C324,186,322.8,186.1,321.2,186.1z"/>
	<path class="st0" d="M371.3,173.6c0.4-3.9,3.1-5.8,8.2-5.8c2.7,0,4.7,0.2,6,0.6c1.3,0.4,2.2,1.1,2.7,2.2s0.8,1.9,0.9,2.7
		c0.1,0.8,0.2,2,0.2,3.6V213c0,1.6-0.1,2.8-0.2,3.6c-0.1,0.8-0.4,1.7-0.9,2.7c-1,1.8-3.3,2.7-7.1,2.7c-3.8,0-6.3-0.5-7.5-1.4
		c-1.3-0.9-2-2.3-2.2-4.1c-2.5,3.6-6.8,5.5-12.8,5.5c-6,0-11.5-2.7-16.6-8.2c-5.1-5.4-7.6-11.8-7.6-18.9c0-7.2,2.6-13.5,7.7-18.9
		c5.1-5.4,10.8-8.1,16.9-8.1c2.3,0,4.5,0.4,6.4,1.2c1.9,0.8,3.3,1.6,4,2.3C370.2,172.2,370.8,172.9,371.3,173.6z M359.2,162.7
		l-3.1,0.7c-2.1,0-3.8-2-5.1-6.1c-0.6-1.7-0.8-3.1-0.8-4.2c0-1.2,0.2-2.1,0.6-2.7c0.7-0.9,2-1.6,3.8-2.2l17-5.3
		c1.8-0.5,2.8-0.7,3.1-0.7c2.1,0,3.7,2,5,6.1c0.5,1.7,0.8,3,0.8,4.2s-0.2,2-0.6,2.6c-0.7,0.9-2,1.6-3.8,2.2L359.2,162.7z
		 M352.5,195.1c0,2.3,0.9,4.3,2.7,6.1c1.8,1.8,4,2.7,6.5,2.7c2.5,0,4.7-0.9,6.4-2.8c1.7-1.9,2.5-3.9,2.5-6.1c0-2.2-0.8-4.3-2.4-6.2
		c-1.6-1.9-3.8-2.9-6.5-2.9c-2.7,0-4.9,1-6.6,2.9C353.3,190.7,352.5,192.8,352.5,195.1z"/>
	<path class="st0" d="M427.3,167.9c6.1,0,11.8,2.7,16.9,8.2c5.1,5.4,7.7,11.8,7.7,18.9c0,7.2-2.5,13.5-7.6,18.9
		c-5.1,5.4-10.6,8.1-16.4,8.1c-5.9,0-10-1.7-12.5-5c-0.6,3.4-3.5,5.1-8.9,5.1c-4.3,0-7-0.9-8-2.8c-0.5-1-0.8-1.9-0.9-2.7
		c-0.1-0.8-0.2-2-0.2-3.6v-61.6c0-1.6,0.1-2.8,0.2-3.6c0.1-0.8,0.4-1.7,0.9-2.6c1-1.9,3.6-2.8,8.1-2.8c4.3,0,7,0.9,7.8,2.8
		c0.5,1,0.9,1.9,1,2.7c0.1,0.8,0.2,2,0.2,3.6V173C418.3,169.6,422.3,167.9,427.3,167.9z M418.3,201.3c1.7,1.9,3.8,2.8,6.3,2.8
		c2.5,0,4.7-0.9,6.5-2.8c1.8-1.9,2.7-3.9,2.7-6.2s-0.8-4.4-2.5-6.2c-1.7-1.9-3.9-2.8-6.6-2.8c-2.8,0-4.9,1-6.6,2.9
		c-1.6,1.9-2.4,4-2.4,6.2C415.8,197.4,416.6,199.4,418.3,201.3z"/>
	<path class="st0" d="M465.8,174.6c5.8-5.4,12.4-8.1,19.8-8.1c7.4,0,14,2.7,19.7,8c5.7,5.3,8.6,12.1,8.6,20.4
		c0,5.7-1.5,10.8-4.4,15.2c-3,4.4-6.6,7.7-10.8,9.8c-4.2,2.1-8.6,3.1-13.2,3.1s-8.9-1.1-13.2-3.4c-4.3-2.2-7.9-5.5-10.8-9.9
		c-2.9-4.4-4.4-9.3-4.4-14.8C457.1,186.8,460,180,465.8,174.6z M478.7,202.4c2.2,1.7,4.4,2.5,6.7,2.5s4.5-0.9,6.8-2.6
		c2.3-1.7,3.4-4.3,3.4-7.6c0-3.4-1.1-5.9-3.2-7.5c-2.1-1.7-4.4-2.5-6.9-2.5c-2.5,0-4.8,0.9-6.9,2.6c-2.1,1.7-3.2,4.3-3.2,7.6
		C475.4,198.2,476.5,200.8,478.7,202.4z"/>
	<path class="st0" d="M557.5,168.4c1.3,0.4,2.4,1.1,3.3,2.1c0.9,1,1.3,2.6,1.3,4.8c0,2.2-0.7,4.6-2,7.2c-1.3,2.6-3.2,3.9-5.7,3.9
		c-1.2,0-2.4-0.3-3.6-0.8c-1.1-0.6-2.6-0.8-4.5-0.8s-3.6,0.7-5.2,2c-1.6,1.3-2.4,2.9-2.4,4.7v21.7c0,1.6-0.1,2.8-0.2,3.6
		c-0.1,0.8-0.4,1.7-1,2.7c-1,1.8-3.7,2.7-8.1,2.7c-3.3,0-5.7-0.6-7.1-1.8c-1.1-1-1.7-2.4-1.9-4.4c0-0.7,0-1.7,0-3v-36.2
		c0-1.6,0.1-2.8,0.2-3.6c0.1-0.8,0.4-1.7,0.9-2.6c1-1.9,3.6-2.8,8.1-2.8c4.1,0,6.7,0.8,7.7,2.4c0.8,1.1,1.1,2.2,1.1,3.4
		c0.3-0.5,0.8-1.1,1.5-1.8c0.7-0.7,2-1.6,4.2-2.8c2.1-1.2,4-1.8,5.6-1.8c1.6,0,3,0.1,4.1,0.3C555,167.7,556.2,168,557.5,168.4z"/>
	<path class="st0" d="M618.4,168.4c4.1,1.8,6.1,4,6.1,6.5c0,1.2-0.3,2.4-0.8,3.5c-0.6,1.1-0.8,1.7-0.8,1.8l-27.1,60.5
		c-0.6,1.3-1,2.3-1.4,3c-0.4,0.7-1,1.3-1.8,2c-0.8,0.6-1.9,0.9-3.1,0.9c-1.2,0-3.1-0.5-5.5-1.5c-4.1-1.8-6.1-3.9-6.1-6.4
		c0-1.7,3.3-9.5,9.9-23.6l-20.5-34.6c-1.4-2.3-2.1-4-2.1-5.1c0-2.2,1.9-4.4,5.6-6.6c2.3-1.4,4.2-2.1,5.5-2.1c1.3,0,2.4,0.3,3.2,0.8
		c0.8,0.6,1.4,1.1,1.8,1.7c0.4,0.6,2.3,3.8,5.7,9.6c3.4,5.8,6.7,11.2,9.8,16.3c0.3-1.1,2.2-5.4,5.6-12.8c3.4-7.4,5.2-11.3,5.4-11.8
		c0.2-0.5,0.6-1.1,1.2-1.8c0.9-1.2,2.2-1.8,3.8-1.8C614.2,167,616.2,167.5,618.4,168.4z"/>
</g>
</svg>
